<?xml version="1.0" encoding="utf-8"?>
<!-- Generator: Adobe Illustrator 22.0.0, SVG Export Plug-In . SVG Version: 6.00 Build 0)  -->
<svg version="1.1" id="Layer_1" xmlns="http://www.w3.org/2000/svg" xmlns:xlink="http://www.w3.org/1999/xlink" x="0px" y="0px"
	 viewBox="0 0 3672.1 567.8" style="enable-background:new 0 0 3672.1 567.8;" xml:space="preserve">
<style type="text/css">
	.st0{fill:#D36666;}
	.st1{fill:#C86567;}
</style>
<path id="startwave1_1_" class="st0" d="M0,465.5h3671.9l0.1-102.9c0,0-470.9,25.6-926.1-82.2c-548.1-129.7-976-5.5-1036,8.7
	c-146.1,34.3-367.1,141.7-1099.5,32.6C336.1,275,0,307.1,0,307.1V465.5z"/>
<path id="startwave1_2_" class="st1" d="M0,566h3672l0.1-108.3c0,0-495.2,26.9-973.9-86.4c-576.4-136.4-1026.3-5.7-1089.5,9.1
	c-153.7,36-386,149.1-1156.2,34.3C164.1,365.7,0,387.4,0,387.4V566z"/>
</svg>
